<svg xmlns="http://www.w3.org/2000/svg" viewBox="0 0 100 125">
  <path style="fill: context-fill;" fill="#8f8f8f" d="M49.834 9c22.607 0 41 18.393 41 41s-18.393 41-41 41-41-18.393-41-41 18.393-41 41-41m0-4c-24.854 0-45 20.147-45 45 0 24.854 20.146 45 45 45 24.853 0 45-20.146 45-45 0-24.853-20.147-45-45-45z"/>
  <path style="fill: context-fill;" fill="#8f8f8f" d="M49.834 45c-2.76 0-5 2.24-5 5s2.24 5 5 5 5-2.24 5-5-2.24-5-5-5zM49.834 78c-2.76 0-5 2.238-5 5 0 2.76 2.24 5 5 5s5-2.24 5-5c0-2.762-2.24-5-5-5zM71.168 38.692c-2.207 0-4 1.79-4 4 0 2.208 1.793 4 4 4s4-1.792 4-4c0-2.21-1.793-4-4-4zM25.37 25c-1.654 0-3 1.344-3 3 0 1.657 1.346 3 3 3s3-1.343 3-3c0-1.656-1.344-3-3-3z"/>
  <path style="fill: context-fill;" fill="#8f8f8f" d="M27.788 71.795s.52.483 1.49 1.39c.242.228.514.48.812.76l.97.74 1.12.863c.392.315.897.578 1.38.897 1.938 1.314 4.544 2.51 7.647 3.5 3.123.995 6.798 1.484 10.894 1.25 1.105.006 2.036-.21 3.063-.335 1.01-.09 2.054-.416 3.112-.658 2.113-.536 4.213-1.388 6.297-2.413 4.14-2.11 7.982-5.374 11.013-9.47.41-.49.745-1.035 1.078-1.584l1.025-1.643.866-1.748c.3-.58.59-1.17.797-1.794.234-.613.47-1.23.703-1.85.227-.62.358-1.273.544-1.912.405-1.273.566-2.605.792-3.932.142-.66.13-1.34.186-2.013.033-.65.102-1.4.11-1.977l-.084-2.11-.042-1.056-.143-.995-.28-1.996c-.134-.667-.32-1.33-.476-1.997-.263-1.35-.82-2.615-1.25-3.92-1.09-2.515-2.337-5-4.035-7.166-.763-1.148-1.743-2.116-2.636-3.154-.465-.502-.993-.94-1.484-1.414-.502-.464-.984-.95-1.544-1.34-4.252-3.39-9.27-5.733-14.42-6.593-5.134-.918-10.323-.582-14.92.743-4.626 1.33-8.646 3.68-11.86 6.388-3.213 2.725-5.665 5.8-7.348 8.794-.442.736-.768 1.506-1.138 2.218-.173.362-.366.708-.514 1.066-.137.362-.27.717-.403 1.065-.256.7-.537 1.36-.74 2.01l-.508 1.887c-.373 1.184-.465 2.292-.643 3.238-.19.946-.228 1.765-.263 2.428L16.834 50l.08-2.037c.02-.665.04-1.487.21-2.438.156-.95.225-2.068.572-3.265l.47-1.908c.19-.66.457-1.33.7-2.04l.382-1.083c.142-.365.328-.718.494-1.087.357-.727.67-1.512 1.1-2.266 1.636-3.065 4.05-6.24 7.263-9.088 3.214-2.83 7.27-5.33 12-6.803 4.732-1.473 10.044-1.938 15.4-1.104 5.37.778 10.67 3.098 15.215 6.563.596.4 1.115.896 1.653 1.37.528.486 1.093.938 1.594 1.456.965 1.068 2.02 2.072 2.853 3.264 1.84 2.25 3.227 4.848 4.44 7.5.492 1.372 1.107 2.71 1.425 4.14.183.708.394 1.406.552 2.124l.358 2.196.174 1.098.063 1.056.13 2.107c.014.828-.044 1.48-.064 2.226-.043.723-.02 1.45-.153 2.164-.208 1.43-.357 2.868-.76 4.25-.183.693-.314 1.4-.542 2.077l-.713 2.015c-.214.68-.51 1.322-.82 1.958-.3.64-.6 1.277-.897 1.913-.357.605-.714 1.207-1.07 1.807-.35.604-.703 1.202-1.132 1.746-3.19 4.52-7.305 8.176-11.797 10.594-2.26 1.18-4.554 2.165-6.872 2.81-1.168.3-2.28.67-3.477.813-1.164.176-2.365.428-3.394.44-4.383.35-8.585-.1-12.068-1.13-3.493-1.023-6.443-2.313-8.65-3.732-.56-.35-1.108-.624-1.59-.987-.484-.355-.938-.688-1.36-1l-1.164-.868c-.304-.272-.58-.52-.828-.74-.99-.886-1.52-1.358-1.52-1.358l2.696-2.96z"/>
  <path style="fill: context-fill;" fill="#8f8f8f" d="M34.868 64.728l1.033.976c.17.158.357.336.564.53l.646.5c.46.36.98.786 1.676 1.193 1.307.902 3.07 1.722 5.174 2.41 2.12.69 4.604 1.038 7.413.896.78.006 1.392-.136 2.085-.217.677-.055 1.392-.272 2.113-.435 1.443-.355 2.878-.928 4.303-1.62 2.835-1.42 5.472-3.637 7.562-6.425 2.127-2.77 3.488-6.24 4.034-9.88.1-.453.096-.92.135-1.38.026-.44.074-.98.085-1.34l-.052-1.47-.025-.737-.094-.68-.186-1.36c-.087-.455-.214-.913-.318-1.37-.177-.93-.554-1.8-.847-2.7-.74-1.732-1.59-3.446-2.75-4.944-.52-.793-1.192-1.464-1.804-2.182-.316-.35-.68-.65-1.017-.98-.346-.32-.676-.658-1.06-.93-2.92-2.352-6.375-3.99-9.93-4.603-3.544-.655-7.143-.44-10.326.46-3.21.907-6.005 2.523-8.246 4.39-2.24 1.88-3.955 4.01-5.136 6.085-.31.51-.538 1.044-.8 1.54-.27.49-.467.99-.645 1.478-.18.485-.378.944-.52 1.396-.127.457-.247.895-.36 1.31-.265.824-.332 1.595-.46 2.253-.135.66-.163 1.23-.19 1.69L26.834 50l.05-1.42c.012-.464.022-1.037.137-1.7.107-.665.15-1.444.39-2.28l.322-1.334c.13-.46.315-.93.482-1.426.164-.5.35-1.012.605-1.518.247-.51.463-1.06.76-1.587 1.135-2.146 2.813-4.374 5.05-6.378 2.24-1.99 5.075-3.754 8.386-4.804 3.32-1.05 7.04-1.393 10.81-.822 3.775.532 7.51 2.15 10.723 4.575.42.28.785.628 1.167.96.373.34.773.656 1.127 1.02.685.75 1.43 1.456 2.02 2.293 1.305 1.583 2.292 3.41 3.154 5.278.354.967.79 1.91 1.02 2.92.132.5.284.99.397 1.5l.262 1.56.125.78.05.736.097 1.468c.01.616-.028 1.054-.04 1.59-.027.51-.012 1.026-.104 1.53-.47 4.056-1.877 7.988-4.164 11.184-2.25 3.214-5.16 5.82-8.345 7.55-1.602.846-3.23 1.552-4.877 2.018-.83.218-1.618.48-2.48.59-.833.13-1.71.31-2.414.322-3.1.258-6.108-.05-8.59-.777-2.494-.723-4.602-1.637-6.18-2.644-.814-.444-1.515-.968-2.123-1.422l-.84-.625-.58-.514-1.063-.94 2.698-2.952z"/>
  <path style="fill: context-fill;" fill="#8f8f8f" d="M41.99 57.71l.577.556c.095.09.2.192.315.304l.323.25c.228.184.482.403.852.624.682.483 1.604.926 2.71 1.303 1.12.377 2.403.583 3.937.52.46.01.73-.07 1.1-.102.34-.018.732-.14 1.115-.215.77-.182 1.535-.478 2.303-.835 1.52-.745 2.95-1.91 4.092-3.396 1.16-1.48 1.918-3.338 2.24-5.306.08-.47.098-1.046.136-1.45l-.018-.832-.01-.415-.048-.36c-.07-.95-.36-1.99-.695-2.948-.75-1.915-1.976-3.68-3.57-4.988-1.588-1.313-3.48-2.238-5.44-2.6-1.954-.387-3.96-.292-5.728.187-1.79.482-3.36 1.362-4.626 2.392-1.265 1.036-2.24 2.216-2.92 3.374-.658 1.165-1.117 2.26-1.346 3.204-.246.937-.366 1.7-.394 2.22l-.063.8.02-.803c-.004-.524.073-1.295.27-2.257.18-.97.58-2.107 1.19-3.343.63-1.228 1.57-2.508 2.834-3.667 1.264-1.152 2.873-2.18 4.764-2.808 1.905-.626 4.035-.85 6.21-.547 2.182.28 4.355 1.184 6.234 2.57 1.886 1.377 3.413 3.312 4.412 5.498.212.562.475 1.11.616 1.697l.243.874.164.925.078.463.033.417.066.83c.016.398-.007.627-.01.95-.015.3.002.602-.048.897-.245 2.382-1.047 4.703-2.366 6.605-1.3 1.912-3.003 3.47-4.873 4.52-.943.514-1.904.943-2.878 1.234-.495.133-.95.297-1.478.37-.494.082-1.06.2-1.44.21-1.807.18-3.626.013-5.106-.4-1.494-.407-2.76-.943-3.714-1.53-.485-.26-.92-.57-1.298-.848-.187-.138-.36-.265-.52-.38l-.33-.286-.61-.523 2.693-2.96z"/>
  <path style="fill: context-fill;" fill="#8f8f8f" d="M51.328 51.33l-30.77 30.765-2.828-2.83L48.5 48.502z"/>
</svg>
